HIERARCHY
ROOT Hips
{
	OFFSET 0.000000 0.000000 0.000000 
	CHANNELS 6 Xposition Yposition Zposition Yrotation Zrotation Xrotation 
	JOINT Lumbar
	{
		OFFSET 0.000000 0.000000 0.000000 
		CHANNELS 3 Zrotation Xrotation Yrotation
		JOINT Neck
		{
			OFFSET 0.000000 0.445665 0.000000 
			CHANNELS 3 Zrotation Xrotation Yrotation
			End Site
			{
				OFFSET 0.000000 0.227535 0.000000 
			}
		}
		JOINT RightShoulder
		{
			OFFSET 0.019635 0.377685 0.194865 
			CHANNELS 3 Zrotation Xrotation Yrotation
			JOINT RightElbow
			{
				OFFSET 0.000000 -0.243375 0.000000 
				CHANNELS 2 Zrotation Yrotation
				JOINT RightWrist
				{
					OFFSET 0.000000 -0.264825 0.000000 
					CHANNELS 2 Zrotation Xrotation
					End Site
					{
						OFFSET 0.006600 -0.176220 0.000990 
					}
				}
			}
		}
		JOINT LeftShoulder
		{
			OFFSET 0.019635 0.377685 -0.194865 
			CHANNELS 3 Zrotation Xrotation Yrotation
			JOINT LeftElbow
			{
				OFFSET 0.000000 -0.243375 0.000000 
				CHANNELS 2 Zrotation Yrotation
				JOINT LeftWrist
				{
					OFFSET 0.000000 -0.264825 0.000000 
					CHANNELS 2 Zrotation Xrotation
					End Site
					{
						OFFSET 0.006600 -0.176220 -0.000990 
					}
				}
			}
		}
	}
	JOINT RightHip
	{
		OFFSET 0.052140 -0.069960 0.075570 
		CHANNELS 3 Zrotation Xrotation Yrotation
		JOINT RightKnee
		{
			OFFSET 0.000000 -0.402270 0.000000 
			CHANNELS 1 Zrotation
			JOINT RightAnkle
			{
				OFFSET 0.000000 -0.404085 0.000000 
				CHANNELS 3 Zrotation Xrotation Yrotation
				End Site
				{
					OFFSET 0.204105 -0.089430 0.008415 
				}
			}
		}
	}
	JOINT LeftHip
	{
		OFFSET 0.052140 -0.069960 -0.075570 
		CHANNELS 3 Zrotation Xrotation Yrotation
		JOINT LeftKnee
		{
			OFFSET 0.000000 -0.402270 0.000000 
			CHANNELS 1 Zrotation
			JOINT LeftAnkle
			{
				OFFSET 0.000000 -0.404085 0.000000 
				CHANNELS 3 Zrotation Xrotation Yrotation
				End Site
				{
					OFFSET 0.204105 -0.089430 -0.008415 
				}
			}
		}
	}
}
MOTION
Frames: 32
Frame Time: 0.02
-0 0.95578 0 181.06957 0 -4.64094 6.07142 4.34073 -1.63419 -39.28881 3.57878 3.60847 -22.24702 -73.16845 -83.96789 16.51474 46.82619 -35.59464 0.54128 36.50627 67.32938 70.5796 18.09333 -83.9796 -23.34494 4.16228 -2.93495 5.52703 -0.97105 -8.82217 1.00845 -4.94526 -10.33867 -2.32036 7.18803 11.52782 -7.58182 3.86925 6.01568 12.18512
0.00051 0.95586 2e-05 181.07825 0 -4.64531 5.96601 4.34259 -1.56886 -39.34301 3.48438 3.53226 -21.37292 -72.99501 -83.99973 16.69596 46.69046 -35.34003 0.58512 36.91152 67.53977 70.12126 18.087 -83.86863 -23.38631 4.14218 -2.86966 5.53826 -0.92824 -8.88256 0.97925 -4.94936 -10.41123 -2.25213 7.1963 11.51463 -7.64685 3.83841 6.01753 12.21147
0.00103 0.95594 3e-05 181.08693 0 -4.64966 5.86027 4.34429 -1.50353 -39.39988 3.38955 3.45578 -20.48639 -72.8205 -84.03582 16.87731 46.56346 -35.08277 0.62804 37.31917 67.7499 69.66217 18.08069 -83.75696 -23.42737 4.12188 -2.804 5.54955 -0.88556 -8.94322 0.95023 -4.95347 -10.48357 -2.18382 7.20464 11.5015 -7.71154 3.80757 6.01924 12.23761
0.00156 0.95602 4e-05 181.09572 0 -4.65391 5.75391 4.34553 -1.43805 -39.46477 3.29288 3.37835 -19.56092 -72.64365 -84.09042 17.06019 46.45475 -34.81672 0.66996 37.73657 67.96103 69.19886 18.07401 -83.64333 -23.46738 4.10077 -2.73717 5.56104 -0.84319 -9.00496 0.92175 -4.95758 -10.55569 -2.11524 7.21313 11.48854 -7.77545 3.77657 6.02058 12.26321
0.00202 0.9561 8e-05 181.10401 0 -4.65864 5.6529 4.3494 -1.37396 -39.48333 3.20691 3.30702 -18.86493 -72.48358 -84.04849 17.23407 46.23089 -34.60239 0.71984 38.09765 68.16691 68.76192 18.06885 -83.54238 -23.51262 4.08417 -2.67767 5.5713 -0.79942 -9.06024 0.89052 -4.96161 -10.62889 -2.04898 7.22052 11.47478 -7.8434 3.74658 6.02407 12.29174
0.00264 0.95617 4e-05 181.11328 0 -4.6624 5.53928 4.34761 -1.3066 -39.60245 3.09775 3.22213 -17.66857 -72.28521 -84.2097 17.42742 46.26318 -34.27539 0.75101 38.58065 68.38363 68.2669 18.06077 -83.41317 -23.54701 4.05789 -2.60196 5.5843 -0.75847 -9.12963 0.86509 -4.96587 -10.69981 -1.9773 7.23045 11.46264 -7.90282 3.71438 6.02284 12.31401
0.00364 0.95622 -0.0002 181.12612 0 -4.66309 5.39761 4.33036 -1.23123 -39.99081 2.92487 3.10235 -15.13963 -71.99702 -84.96492 17.67634 46.92236 -33.64629 0.74541 39.40124 68.63723 67.61346 18.04191 -83.21291 -23.54988 4.00442 -2.4841 5.60413 -0.72604 -9.23734 0.85594 -4.97032 -10.76572 -1.8926 7.24629 11.4556 -7.93879 3.67582 6.00963 12.31928
0.0048 0.95627 -0.00053 181.13984 0 -4.66287 5.24156 4.3073 -1.15228 -40.48234 2.72849 2.96847 -12.09523 -71.66726 -85.91904 17.94438 47.85324 -32.90142 0.71854 40.34656 68.90033 66.89948 18.02067 -82.98293 -23.54266 3.94123 -2.34916 5.62691 -0.69623 -9.35961 0.85255 -4.97508 -10.82924 -1.80179 7.26493 11.45002 -7.96628 3.63497 5.99148 12.31824
0.00592 0.95631 -0.00083 181.15259 0 -4.66334 5.08782 4.28684 -1.0742 -40.93314 2.54223 2.83899 -9.24935 -71.34532 -86.76284 18.20347 48.71617 -32.20238 0.69119 41.23416 69.15547 66.21209 18.00215 -82.7613 -23.54035 3.88265 -2.22036 5.64884 -0.66481 -9.47568 0.8464 -4.98003 -10.893 -1.71262 7.28304 11.44348 -7.99744 3.59534 5.97483 12.31984
0.00692 0.95637 -0.00109 181.16763 0 -4.66267 4.95293 4.26677 -0.99933 -41.35934 2.35769 2.71727 -6.54821 -71.06871 -87.69455 18.46565 49.35466 -31.53064 0.70508 42.12236 69.42778 65.53197 17.97637 -82.56011 -23.5343 3.82307 -2.09893 5.66865 -0.63545 -9.58969 0.84101 -4.98368 -10.96 -1.629 7.298 11.43849 -8.02883 3.55517 5.96113 12.32219
0.0082 0.9564 -0.00144 181.17827 0 -4.66413 4.77408 4.24425 -0.91691 -41.85946 2.16484 2.57698 -3.43124 -70.6896 -88.48555 18.72338 50.51263 -30.77627 0.62999 43.04352 69.66426 64.8182 17.96558 -82.31099 -23.53662 3.76351 -1.95744 5.69362 -0.60204 -9.71182 0.83523 -4.99002 -11.02009 -1.53147 7.32022 11.43022 -8.05838 3.5153 5.94033 12.32176
0.01012 0.95637 -0.002 181.17521 0 -4.67207 4.48811 4.21887 -0.81489 -42.55419 1.94722 2.38073 0.77941 -70.02229 -88.87833 18.98667 53.14664 -29.80721 0.2975 43.98891 69.81915 64.05927 17.9933 -81.9219 -23.53944 3.70445 -1.77011 5.73179 -0.56024 -9.84971 0.82838 -5.00444 -11.05823 -1.40447 7.36146 11.41607 -8.0792 3.47928 5.89912 12.31249
0.01232 0.95631 -0.00265 181.16806 0 -4.68216 4.15622 4.19083 -0.7054 -43.31676 1.72345 2.16783 5.37798 -69.25618 -89.11348 19.24094 56.2741 -28.76205 -0.12073 44.97152 69.93374 63.26097 18.03692 -81.48828 -23.55592 3.64613 -1.56209 5.77513 -0.5138 -9.99587 0.82062 -5.02139 -11.09015 -1.26224 7.40999 11.39795 -8.09943 3.44315 5.85122 12.30099
0.01443 0.95626 -0.00326 181.16351 0 -4.69101 3.83848 4.16233 -0.59903 -44.03803 1.5075 1.96789 9.75137 -68.54532 -89.39766 19.48418 59.1045 -27.76104 -0.4885 45.95892 70.05421 62.46093 18.07544 -81.08495 -23.58238 3.58871 -1.36011 5.81629 -0.46701 -10.14028 0.81241 -5.03672 -11.12723 -1.1222 7.45538 11.37928 -8.12377 3.40549 5.80777 12.29246
0.01637 0.95622 -0.00385 181.15537 0 -4.70082 3.54924 4.14045 -0.49344 -44.80735 1.26961 1.7446 14.34686 -67.78912 -89.79201 19.79065 62.25087 -26.71431 -0.90518 46.85264 70.22855 61.74761 18.10458 -80.63855 -23.53936 3.52565 -1.17206 5.85677 -0.42998 -10.27666 0.80826 -5.05415 -11.15442 -1.00219 7.50007 11.37041 -8.13193 3.37452 5.75851 12.27605
0.01874 0.95617 -0.0045 181.15434 0 -4.7093 3.18912 4.10449 -0.38483 -45.49102 1.07613 1.56627 18.56798 -67.1047 -89.90707 19.96468 64.85388 -25.74784 -1.24052 47.95671 70.2797 60.83767 18.1575 -80.27116 -23.64542 3.47477 -0.94992 5.89996 -0.37238 -10.4316 0.79508 -5.06768 -11.20068 -0.83661 7.54802 11.3404 -8.17337 3.32949 5.71944 12.27489
0.02217 0.95613 -0.00526 181.16871 0 -4.7122 2.65121 4.02814 -0.26666 -45.92409 1.00792 1.51524 21.63396 -66.63983 -89.37095 19.76099 65.82475 -25.00798 -1.32656 49.5634 70.01087 59.45721 18.26914 -80.13722 -24.15041 3.45621 -0.64172 5.94834 -0.25122 -10.63546 0.75945 -5.07065 -11.30177 -0.55161 7.60214 11.25126 -8.31009 3.24652 5.71336 12.3225
0.02602 0.9561 -0.00608 181.19131 0 -4.71388 2.04222 3.93816 -0.14616 -46.26776 0.98439 1.51009 24.31233 -66.25086 -88.54227 19.42702 66.23269 -24.35425 -1.32853 51.3925 69.61709 57.86825 18.40524 -80.08347 -24.80594 3.4501 -0.29933 5.99937 -0.11094 -10.85782 0.71433 -5.06943 -11.42213 -0.22088 7.65938 11.14143 -8.4796 3.14913 5.71719 12.38436
0.02972 0.95606 -0.00687 181.21367 0 -4.71707 1.46168 3.85589 -0.02892 -46.65001 0.93991 1.48482 27.18264 -65.82981 -87.79401 19.1617 66.90384 -23.67106 -1.37114 53.16481 69.27423 56.33463 18.53154 -79.99049 -25.39976 3.43917 0.02916 6.04992 0.01538 -11.07171 0.67198 -5.06956 -11.53327 0.09072 7.71598 11.04202 -8.63225 3.05795 5.71437 12.43582
0.03328 0.95603 -0.00767 181.22136 0 -4.71652 0.89647 3.76713 0.09734 -47.04275 0.89843 1.45657 29.99936 -65.3971 -87.2651 18.85557 67.56011 -22.94581 -1.40584 54.75265 68.9564 54.96835 18.65085 -79.90842 -25.9691 3.42493 0.35099 6.09787 0.16398 -11.28574 0.63595 -5.07214 -11.64621 0.39614 7.7699 10.93765 -8.79387 2.96871 5.72035 12.50407
0.03722 0.95599 -0.00846 181.26128 0 -4.72319 0.28218 3.68869 0.20592 -47.39227 0.86079 1.44478 32.83155 -65.00551 -86.20819 18.60442 68.10859 -22.3277 -1.43672 56.77564 68.55518 53.20161 18.79282 -79.82235 -26.6208 3.42024 0.69512 6.15144 0.27084 -11.5043 0.58471 -5.06857 -11.76 0.72477 7.82963 10.83944 -8.94368 2.87138 5.71048 12.54036
0.04207 0.95592 -0.00921 181.39086 0 -4.75219 -0.44283 3.64188 0.25964 -47.63731 0.82793 1.47443 35.78863 -64.72989 -83.79554 18.53037 68.48519 -22.00202 -1.47058 59.95655 67.97211 50.40468 18.9701 -79.7147 -27.49836 3.44158 1.08737 6.22284 0.25622 -11.7259 0.49227 -5.04929 -11.8721 1.10907 7.90806 10.75722 -9.06102 2.76063 5.65411 12.48867
0.04729 0.95584 -0.00996 181.55197 0 -4.7881 -1.21605 3.60592 0.29652 -47.84289 0.79639 1.5177 38.7741 -64.48905 -80.85623 18.51762 68.77424 -21.77859 -1.50452 63.56449 67.30612 47.20738 19.17342 -79.59941 -28.44635 3.47163 1.50172 6.29923 0.19931 -11.95223 0.38515 -5.02393 -11.98433 1.51459 7.99156 10.68298 -9.1639 2.64126 5.58157 12.40389
0.05236 0.95576 -0.0107 181.6971 0 -4.81947 -1.9717 3.56517 0.34458 -48.07075 0.76106 1.55023 41.75401 -64.2198 -78.13925 18.48088 69.10643 -21.49681 -1.54245 66.97098 66.6668 44.17766 19.37843 -79.48107 -29.33966 3.49587 1.90917 6.37138 0.16264 -12.17965 0.28576 -5.00117 -12.09605 1.90847 8.07048 10.60921 -9.26799 2.52224 5.51664 12.33151
0.05737 0.95568 -0.01147 181.85007 0 -4.85672 -2.71111 3.52354 0.3776 -48.27714 0.74112 1.60395 44.69339 -64.00877 -75.48557 18.42237 69.39786 -21.26694 -1.55994 70.42063 66.07032 41.20198 19.52645 -79.39044 -30.33641 3.52822 2.30454 6.45195 0.12194 -12.39426 0.18157 -4.9789 -12.2102 2.31228 8.15915 10.5178 -9.39558 2.41764 5.45085 12.26976
0.0626 0.95559 -0.01217 181.99334 0 -4.88333 -3.49542 3.48625 0.43823 -48.52007 0.68838 1.61568 47.72424 -63.68073 -72.57659 18.42656 69.76983 -20.95361 -1.62182 73.87364 65.36565 38.02055 19.80001 -79.24253 -31.1294 3.54574 2.7299 6.51615 0.07984 -12.63616 0.08403 -4.95429 -12.31924 2.69995 8.22862 10.46485 -9.47071 2.28132 5.38299 12.17908
0.06835 0.95548 -0.01266 182.10884 0 -4.87943 -4.38658 3.46045 0.57647 -48.87351 0.54893 1.51215 51.04061 -63.04584 -69.11152 18.58038 70.31075 -20.37393 -1.80066 77.27293 64.38971 34.37857 20.4058 -78.9105 -31.36849 3.51887 3.23195 6.53385 0.03936 -12.95416 0.00828 -4.92401 -12.4123 3.03659 8.24435 10.52023 -9.40108 2.05812 5.31238 12.0053
0.07432 0.95535 -0.01306 182.21235 0 -4.86458 -5.32184 3.43836 0.7435 -49.26538 0.37553 1.36492 54.44142 -62.28642 -65.40557 18.79759 70.95361 -19.7098 -2.02581 80.65039 63.30637 30.54391 21.13873 -78.52632 -31.39495 3.47704 3.76312 6.53497 -0.0005 -13.29865 -0.06026 -4.89171 -12.50022 3.35621 8.24058 10.61343 -9.27956 1.80365 5.24036 11.80529
0.0802 0.95521 -0.0135 182.31671 0 -4.85428 -6.24009 3.41316 0.89926 -49.64032 0.21457 1.23482 57.7807 -61.56814 -61.79805 18.99184 71.60033 -19.08916 -2.23361 84.01155 62.26896 26.79054 21.81824 -78.18332 -31.50031 3.44273 4.28158 6.54366 -0.03727 -13.6301 -0.13181 -4.86083 -12.59191 3.68429 8.24524 10.6867 -9.18391 1.56448 5.1696 11.62503
0.08606 0.95511 -0.01395 182.44098 0 -4.84563 -7.14743 3.39414 1.04713 -50.01219 0.06588 1.11671 61.22294 -60.91873 -58.218 19.16284 72.02726 -18.4445 -2.42503 87.50502 61.24349 23.04422 22.47899 -77.76455 -31.68107 3.40529 4.79968 6.55213 -0.08879 -13.9674 -0.20466 -4.8277 -12.67857 4.01028 8.25145 10.77166 -9.07833 1.32033 5.09573 11.41179
0.092 0.95494 -0.01437 182.52129 0 -4.83135 -8.08714 3.36323 1.21805 -50.39934 -0.1159 0.9631 64.46487 -60.09285 -54.53118 19.39728 72.94303 -17.83604 -2.6625 90.70391 60.16526 19.24941 23.21026 -77.49354 -31.65587 3.37121 5.3238 6.55735 -0.11008 -14.29693 -0.27335 -4.79873 -12.77322 4.33603 8.25028 10.84136 -8.98103 1.07935 5.02814 11.25988
0.09813 0.95455 -0.01473 182.47625 0 -4.79991 -9.10652 3.2965 1.44928 -50.82639 -0.38568 0.72149 67.18048 -58.83386 -50.60634 19.78449 75.13578 -17.28257 -3.00783 93.16199 58.99728 15.31231 24.08924 -77.62599 -31.09134 3.34591 5.86867 6.55526 -0.03736 -14.6139 -0.32809 -4.783 -12.9021 4.66733 8.22868 10.8575 -8.92167 0.85388 4.97906 11.29772
